AmstelvarAlpha-GradeMax.ufo
<glyph name="quotedbl" format="1">
  <advance width="974"/>
  <unicode hex="0022"/>
  <outline>
    <contour>
      <point x="343" y="807" type="line"/>
      <point x="168" y="1337" type="line"/>
      <point x="168" y="1416"/>
      <point x="263" y="1558"/>
      <point x="369" y="1558" type="qcurve" smooth="yes"/>
      <point x="475" y="1558"/>
      <point x="569" y="1416"/>
      <point x="569" y="1337" type="qcurve"/>
      <point x="394" y="807" type="line"/>
    </contour>
    <contour>
      <point x="803" y="807" type="line"/>
      <point x="628" y="1337" type="line"/>
      <point x="628" y="1416"/>
      <point x="723" y="1558"/>
      <point x="829" y="1558" type="qcurve" smooth="yes"/>
      <point x="935" y="1558"/>
      <point x="1030" y="1416"/>
      <point x="1030" y="1337" type="qcurve"/>
      <point x="854" y="807" type="line"/>
    </contour>
  </outline>
</glyph>
<glyph name="parenleft" format="1">
  <advance width="598"/>
  <unicode hex="0028"/>
  <outline>
    <contour>
      <point x="-13.909090909090907" y="653" type="qcurve" smooth="yes"/>
      <point x="-13.909090909090907" y="929"/>
      <point x="281.0909090909091" y="1393"/>
      <point x="494.0909090909091" y="1525" type="qcurve"/>
      <point x="602.0909090909091" y="1442" type="line"/>
      <point x="546.0909090909091" y="1306"/>
      <point x="480.0909090909091" y="894"/>
      <point x="480.0909090909091" y="654" type="qcurve" smooth="yes"/>
      <point x="480.0909090909091" y="412"/>
      <point x="541.0909090909091" y="19"/>
      <point x="601.0909090909091" y="-138" type="qcurve"/>
      <point x="494.0909090909091" y="-218" type="line"/>
      <point x="278.0909090909091" y="-63"/>
      <point x="-13.909090909090907" y="371"/>
    </contour>
  </outline>
</glyph>
<glyph name="asterisk" format="1">
  <advance width="858"/>
  <unicode hex="002A"/>
  <outline>
    <contour>
      <point x="439" y="625" type="qcurve" smooth="yes"/>
      <point x="376" y="625"/>
      <point x="307" y="705"/>
      <point x="321" y="766" type="qcurve" smooth="yes"/>
      <point x="366" y="939" type="line"/>
      <point x="354" y="948" type="line"/>
      <point x="221" y="822" type="line" smooth="yes"/>
      <point x="181" y="787"/>
      <point x="76" y="796"/>
      <point x="43" y="855" type="qcurve" smooth="yes"/>
      <point x="10" y="912"/>
      <point x="58" y="1012"/>
      <point x="109" y="1028" type="qcurve" smooth="yes"/>
      <point x="277" y="1075" type="line"/>
      <point x="275" y="1090" type="line"/>
      <point x="109" y="1140" type="line" smooth="yes"/>
      <point x="59" y="1157"/>
      <point x="10" y="1256"/>
      <point x="43" y="1314" type="qcurve" smooth="yes"/>
      <point x="76" y="1372"/>
      <point x="182" y="1383"/>
      <point x="221" y="1347" type="qcurve" smooth="yes"/>
      <point x="353" y="1217" type="line"/>
      <point x="364" y="1226" type="line"/>
      <point x="321" y="1402" type="line" smooth="yes"/>
      <point x="307" y="1466"/>
      <point x="378" y="1544"/>
      <point x="439" y="1544" type="qcurve" smooth="yes"/>
      <point x="502" y="1544"/>
      <point x="571" y="1464"/>
      <point x="557" y="1402" type="qcurve" smooth="yes"/>
      <point x="511" y="1230" type="line"/>
      <point x="525" y="1221" type="line"/>
      <point x="656" y="1347" type="line" smooth="yes"/>
      <point x="696" y="1382"/>
      <point x="802" y="1372"/>
      <point x="835" y="1314" type="qcurve" smooth="yes"/>
      <point x="868" y="1256"/>
      <point x="820" y="1156"/>
      <point x="769" y="1141" type="qcurve" smooth="yes"/>
      <point x="600" y="1093" type="line"/>
      <point x="602" y="1079" type="line"/>
      <point x="769" y="1028" type="line" smooth="yes"/>
      <point x="819" y="1012"/>
      <point x="868" y="912"/>
      <point x="835" y="854" type="qcurve" smooth="yes"/>
      <point x="802" y="796"/>
      <point x="696" y="786"/>
      <point x="656" y="822" type="qcurve" smooth="yes"/>
      <point x="529" y="948" type="line"/>
      <point x="515" y="939" type="line"/>
      <point x="559" y="766" type="line" smooth="yes"/>
      <point x="572" y="705"/>
      <point x="506" y="625"/>
    </contour>
  </outline>
</glyph>
<glyph name="two" format="1">
  <advance width="966"/>
  <unicode hex="0032"/>
  <outline>
    <contour>
      <point x="12" y="0" type="line"/>
      <point x="12" y="180" type="line" smooth="yes"/>
      <point x="16" y="305"/>
      <point x="111" y="552"/>
      <point x="190" y="671" type="qcurve" smooth="yes"/>
      <point x="276" y="800"/>
      <point x="336" y="1000"/>
      <point x="336" y="1133" type="qcurve" smooth="yes"/>
      <point x="336" y="1278"/>
      <point x="262" y="1381"/>
      <point x="202" y="1381" type="qcurve" smooth="yes"/>
      <point x="148" y="1381"/>
      <point x="60" y="1332"/>
      <point x="23" y="1290" type="qcurve"/>
      <point x="23" y="1396" type="line"/>
      <point x="75" y="1446"/>
      <point x="284" y="1520"/>
      <point x="473" y="1520" type="qcurve" smooth="yes"/>
      <point x="713" y="1520"/>
      <point x="936" y="1322"/>
      <point x="936" y="1149" type="qcurve" smooth="yes"/>
      <point x="936" y="964"/>
      <point x="738" y="696"/>
      <point x="546" y="617" type="qcurve" smooth="yes"/>
      <point x="382" y="544"/>
      <point x="220" y="415"/>
      <point x="195" y="338" type="qcurve"/>
      <point x="198" y="323" type="line"/>
      <point x="961" y="323" type="line"/>
      <point x="961" y="0" type="line"/>
    </contour>
  </outline>
</glyph>
<glyph name="three" format="1">
  <advance width="953"/>
  <unicode hex="0033"/>
  <outline>
    <contour>
      <point x="1.8823529411764706" y="76" type="qcurve"/>
      <point x="1.8823529411764706" y="188" type="line"/>
      <point x="30.88235294117647" y="160"/>
      <point x="137.88235294117646" y="113"/>
      <point x="210.88235294117646" y="113" type="qcurve" smooth="yes"/>
      <point x="286.88235294117646" y="113"/>
      <point x="361.88235294117646" y="225"/>
      <point x="361.88235294117646" y="415" type="qcurve" smooth="yes"/>
      <point x="361.88235294117646" y="588"/>
      <point x="262.88235294117646" y="728"/>
      <point x="180.88235294117646" y="728" type="qcurve" smooth="yes"/>
      <point x="109.88235294117646" y="728" type="line"/>
      <point x="101" y="829" type="line"/>
      <point x="186.88235294117646" y="833" type="line" smooth="yes"/>
      <point x="266.88235294117646" y="838"/>
      <point x="341.88235294117646" y="979"/>
      <point x="341.88235294117646" y="1152" type="qcurve" smooth="yes"/>
      <point x="341.88235294117646" y="1306"/>
      <point x="261.88235294117646" y="1395"/>
      <point x="205.88235294117646" y="1395" type="qcurve" smooth="yes"/>
      <point x="153.88235294117646" y="1395"/>
      <point x="68.88235294117646" y="1362"/>
      <point x="29.88235294117647" y="1332" type="qcurve"/>
      <point x="29.88235294117647" y="1427" type="line"/>
      <point x="86.88235294117646" y="1471"/>
      <point x="288.88235294117646" y="1520"/>
      <point x="476.88235294117646" y="1520" type="qcurve" smooth="yes"/>
      <point x="693.8823529411765" y="1520"/>
      <point x="896.8823529411765" y="1346"/>
      <point x="896.8823529411765" y="1183" type="qcurve" smooth="yes"/>
      <point x="896.8823529411765" y="1024"/>
      <point x="732.8823529411765" y="841"/>
      <point x="550.8823529411765" y="815" type="qcurve"/>
      <point x="550.8823529411765" y="808" type="line"/>
      <point x="721.8823529411765" y="795"/>
      <point x="938.8823529411765" y="608"/>
      <point x="938.8823529411765" y="423" type="qcurve" smooth="yes"/>
      <point x="938.8823529411765" y="232"/>
      <point x="698.8823529411765" y="-21"/>
      <point x="421.88235294117646" y="-21" type="qcurve" smooth="yes"/>
      <point x="244.88235294117646" y="-21"/>
      <point x="42.88235294117647" y="38"/>
    </contour>
  </outline>
</glyph>
<glyph name="colon" format="1">
  <advance width="664"/>
  <unicode hex="003A"/>
  <outline>
    <contour>
      <point x="87.0" y="170" type="qcurve" smooth="yes"/>
      <point x="87.0" y="242"/>
      <point x="232.0" y="312"/>
      <point x="332.0" y="312" type="qcurve" smooth="yes"/>
      <point x="438.0" y="312"/>
      <point x="577.0" y="242"/>
      <point x="577.0" y="170" type="qcurve"/>
      <point x="576.0" y="97"/>
      <point x="449.0" y="-22"/>
      <point x="332.0" y="-22" type="qcurve" smooth="yes"/>
      <point x="218.0" y="-22"/>
      <point x="87.0" y="97"/>
    </contour>
    <contour>
      <point x="88.0" y="843" type="qcurve" smooth="yes"/>
      <point x="88.0" y="913"/>
      <point x="218.0" y="1029"/>
      <point x="331.0" y="1029" type="qcurve" smooth="yes"/>
      <point x="442.0" y="1029"/>
      <point x="577.0" y="913"/>
      <point x="577.0" y="843" type="qcurve" smooth="yes"/>
      <point x="577.0" y="768"/>
      <point x="432.0" y="697"/>
      <point x="331.0" y="697" type="qcurve" smooth="yes"/>
      <point x="232.0" y="697"/>
      <point x="87.0" y="768"/>
    </contour>
  </outline>
</glyph>
<glyph name="less" format="1">
  <advance width="701"/>
  <unicode hex="003C"/>
  <outline>
    <contour>
      <point x="40" y="634" type="qcurve"/>
      <point x="40" y="634"/>
      <point x="419" y="1078"/>
      <point x="475" y="1140" type="qcurve" smooth="yes"/>
      <point x="531" y="1203"/>
      <point x="703" y="1054"/>
      <point x="658" y="990" type="qcurve" smooth="yes"/>
      <point x="574" y="873"/>
      <point x="383" y="637"/>
      <point x="383" y="637" type="qcurve"/>
      <point x="383" y="637"/>
      <point x="580" y="401"/>
      <point x="657" y="294" type="qcurve" smooth="yes"/>
      <point x="703" y="233"/>
      <point x="538" y="73"/>
      <point x="484" y="134" type="qcurve" smooth="yes"/>
      <point x="429" y="197"/>
      <point x="40" y="634"/>
    </contour>
  </outline>
</glyph>
<glyph name="equal" format="1">
  <advance width="1024"/>
  <unicode hex="003D"/>
  <outline>
    <contour>
      <point x="110" y="252" type="line"/>
      <point x="110" y="540" type="line"/>
      <point x="528" y="536" type="line"/>
      <point x="946" y="540" type="line"/>
      <point x="946" y="252" type="line"/>
      <point x="528" y="256" type="line"/>
    </contour>
    <contour>
      <point x="110" y="692" type="line"/>
      <point x="110" y="980" type="line"/>
      <point x="528" y="976" type="line"/>
      <point x="946" y="980" type="line"/>
      <point x="946" y="692" type="line"/>
      <point x="528" y="696" type="line"/>
    </contour>
  </outline>
</glyph>
<glyph name="greater" format="1">
  <advance width="701"/>
  <unicode hex="003E"/>
  <outline>
    <contour>
      <point x="675" y="634" type="qcurve"/>
      <point x="675" y="634"/>
      <point x="286" y="197"/>
      <point x="231" y="134" type="qcurve" smooth="yes"/>
      <point x="177" y="73"/>
      <point x="12" y="233"/>
      <point x="58" y="294" type="qcurve" smooth="yes"/>
      <point x="135" y="401"/>
      <point x="332" y="637"/>
      <point x="332" y="637" type="qcurve"/>
      <point x="332" y="637"/>
      <point x="141" y="873"/>
      <point x="57" y="990" type="qcurve" smooth="yes"/>
      <point x="12" y="1054"/>
      <point x="184" y="1203"/>
      <point x="240" y="1140" type="qcurve" smooth="yes"/>
      <point x="296" y="1078"/>
      <point x="675" y="634"/>
    </contour>
  </outline>
</glyph>
<glyph name="question" format="1">
  <advance width="898"/>
  <unicode hex="003F"/>
  <outline>
    <contour>
      <point x="69" y="178" type="qcurve" smooth="yes"/>
      <point x="69" y="260"/>
      <point x="190" y="369"/>
      <point x="286" y="369" type="qcurve" smooth="yes"/>
      <point x="381" y="369"/>
      <point x="502" y="260"/>
      <point x="502" y="178" type="qcurve" smooth="yes"/>
      <point x="502" y="98"/>
      <point x="381" y="-22"/>
      <point x="286" y="-22" type="qcurve" smooth="yes"/>
      <point x="189" y="-22"/>
      <point x="69" y="98"/>
    </contour>
    <contour>
      <point x="0" y="1376" type="line"/>
      <point x="43" y="1438"/>
      <point x="215" y="1524"/>
      <point x="369" y="1524" type="qcurve" smooth="yes"/>
      <point x="607" y="1524"/>
      <point x="854" y="1312"/>
      <point x="854" y="1108" type="qcurve" smooth="yes"/>
      <point x="854" y="901"/>
      <point x="644" y="689"/>
      <point x="435" y="689" type="qcurve" smooth="yes"/>
      <point x="383" y="689"/>
      <point x="264" y="700"/>
      <point x="240" y="706" type="qcurve"/>
      <point x="241" y="525" type="line"/>
      <point x="154" y="525" type="line"/>
      <point x="150" y="657" type="line"/>
      <point x="138" y="782" type="line"/>
      <point x="172" y="817" type="line"/>
      <point x="190" y="811"/>
      <point x="243" y="804"/>
      <point x="269" y="804" type="qcurve" smooth="yes"/>
      <point x="329" y="804"/>
      <point x="395" y="917"/>
      <point x="395" y="1110" type="qcurve" smooth="yes"/>
      <point x="395" y="1299"/>
      <point x="307" y="1413"/>
      <point x="233" y="1413" type="qcurve" smooth="yes"/>
      <point x="175" y="1413"/>
      <point x="76" y="1361"/>
      <point x="44" y="1321" type="qcurve"/>
    </contour>
  </outline>
</glyph>
<glyph name="A" format="1">
  <advance width="1506"/>
  <unicode hex="0041"/>
  <outline>
    <contour>
      <point x="-14.0" y="0" type="line"/>
      <point x="-14.0" y="100" type="line"/>
      <point x="103.0" y="135" type="line"/>
      <point x="237.0" y="567" type="line"/>
      <point x="493.0" y="1508" type="line"/>
      <point x="1005.0" y="1508" type="line"/>
      <point x="1243.0" y="652" type="line"/>
      <point x="1408.0" y="135" type="line"/>
      <point x="1520.0" y="100" type="line"/>
      <point x="1520.0" y="0" type="line"/>
      <point x="741.0" y="0" type="line"/>
      <point x="741.0" y="100" type="line"/>
      <point x="859.0" y="131" type="line"/>
      <point x="751.0" y="553" type="line"/>
      <point x="555.0" y="1214" type="line"/>
      <point x="359.0" y="566" type="line"/>
      <point x="244.0" y="130" type="line"/>
      <point x="360.0" y="100" type="line"/>
      <point x="360.0" y="0" type="line"/>
    </contour>
    <contour>
      <point x="257.0" y="448" type="line"/>
      <point x="285.0" y="567" type="line"/>
      <point x="598.0" y="557" type="line"/>
      <point x="933.0" y="568" type="line"/>
      <point x="959.0" y="448" type="line"/>
    </contour>
  </outline>
</glyph>
<glyph name="B" format="1">
  <advance width="1269"/>
  <unicode hex="0042"/>
  <outline>
    <contour>
      <point x="17.12658227848101" y="0" type="line"/>
      <point x="17.12658227848101" y="100" type="line"/>
      <point x="79.12658227848101" y="136" type="line"/>
      <point x="81.12658227848101" y="784" type="line"/>
      <point x="79.12658227848101" y="1352" type="line"/>
      <point x="17.12658227848101" y="1386" type="line"/>
      <point x="17.12658227848101" y="1500" type="line"/>
      <point x="804.126582278481" y="1500" type="line" smooth="yes"/>
      <point x="1011.126582278481" y="1500"/>
      <point x="1190.126582278481" y="1309"/>
      <point x="1190.126582278481" y="1166" type="qcurve" smooth="yes"/>
      <point x="1190.126582278481" y="1031"/>
      <point x="1078.126582278481" y="854"/>
      <point x="974.126582278481" y="833" type="qcurve"/>
      <point x="974.126582278481" y="826" type="line"/>
      <point x="1094.126582278481" y="799"/>
      <point x="1253.126582278481" y="604"/>
      <point x="1253.126582278481" y="433" type="qcurve" smooth="yes"/>
      <point x="1253.126582278481" y="246"/>
      <point x="1051.126582278481" y="0"/>
      <point x="836.126582278481" y="0" type="qcurve" smooth="yes"/>
    </contour>
    <contour>
      <point x="575.126582278481" y="135" type="line"/>
      <point x="582.126582278481" y="115" type="line"/>
      <point x="618.126582278481" y="115" type="line" smooth="yes"/>
      <point x="693.126582278481" y="115"/>
      <point x="753.126582278481" y="262"/>
      <point x="753.126582278481" y="440" type="qcurve" smooth="yes"/>
      <point x="753.126582278481" y="613"/>
      <point x="696.126582278481" y="738"/>
      <point x="641.126582278481" y="738" type="qcurve" smooth="yes"/>
      <point x="579.126582278481" y="738" type="line"/>
      <point x="575.126582278481" y="733" type="line"/>
    </contour>
    <contour>
      <point x="574.126582278481" y="869" type="line"/>
      <point x="574.126582278481" y="852" type="line"/>
      <point x="607.126582278481" y="852" type="line" smooth="yes"/>
      <point x="665.126582278481" y="852"/>
      <point x="694.126582278481" y="991"/>
      <point x="694.126582278481" y="1129" type="qcurve" smooth="yes"/>
      <point x="694.126582278481" y="1260"/>
      <point x="666.126582278481" y="1370"/>
      <point x="611.126582278481" y="1370" type="qcurve" smooth="yes"/>
      <point x="584.126582278481" y="1370" type="line"/>
      <point x="576.126582278481" y="1363" type="line"/>
    </contour>
  </outline>
</glyph>
<glyph name="C" format="1">
  <advance width="1446"/>
  <unicode hex="0043"/>
  <outline>
    <contour>
      <point x="80" y="734" type="qcurve" smooth="yes"/>
      <point x="80" y="1122"/>
      <point x="546" y="1515"/>
      <point x="892" y="1515" type="qcurve" smooth="yes"/>
      <point x="1065" y="1515"/>
      <point x="1292" y="1448"/>
      <point x="1364" y="1393" type="qcurve"/>
      <point x="1270" y="1284" type="line"/>
      <point x="1230" y="1326"/>
      <point x="1098" y="1385"/>
      <point x="1011" y="1385" type="qcurve" smooth="yes"/>
      <point x="826" y="1385"/>
      <point x="625" y="1138"/>
      <point x="626" y="761" type="qcurve" smooth="yes"/>
      <point x="626" y="400"/>
      <point x="844" y="122"/>
      <point x="1031" y="122" type="qcurve" smooth="yes"/>
      <point x="1152" y="122"/>
      <point x="1325" y="240"/>
      <point x="1373" y="356" type="qcurve"/>
      <point x="1464" y="297" type="line"/>
      <point x="1395" y="135"/>
      <point x="1112" y="-25"/>
      <point x="889" y="-25" type="qcurve" smooth="yes"/>
      <point x="540" y="-25"/>
      <point x="80" y="353"/>
    </contour>
    <contour>
      <point x="1233" y="1319" type="line"/>
      <point x="1313" y="1489" type="line"/>
      <point x="1397" y="1489" type="line"/>
      <point x="1397" y="1032" type="line"/>
      <point x="1293" y="1032" type="line"/>
    </contour>
  </outline>
</glyph>
<glyph name="E" format="1">
  <advance width="1260"/>
  <unicode hex="0045"/>
  <outline>
    <contour>
      <point x="82" y="0" type="line"/>
      <point x="82" y="100" type="line"/>
      <point x="211" y="135" type="line"/>
      <point x="213" y="777" type="line"/>
      <point x="211" y="1352" type="line"/>
      <point x="82" y="1386" type="line"/>
      <point x="82" y="1500" type="line"/>
      <point x="1197" y="1500" type="line"/>
      <point x="1197" y="1171" type="line"/>
      <point x="1091" y="1171" type="line"/>
      <point x="1056" y="1382" type="line"/>
      <point x="766" y="1382" type="line"/>
      <point x="713" y="1357" type="line"/>
      <point x="711" y="783" type="line"/>
      <point x="713" y="133" type="line"/>
      <point x="759" y="108" type="line"/>
      <point x="1106" y="108" type="line"/>
      <point x="1178" y="359" type="line"/>
      <point x="1283" y="359" type="line"/>
      <point x="1245" y="0" type="line"/>
    </contour>
    <contour>
      <point x="464" y="738" type="line"/>
      <point x="464" y="834" type="line"/>
      <point x="986" y="844" type="line"/>
      <point x="1012" y="994" type="line"/>
      <point x="1110" y="994" type="line"/>
      <point x="1110" y="570" type="line"/>
      <point x="1012" y="570" type="line"/>
      <point x="986" y="728" type="line"/>
    </contour>
  </outline>
</glyph>
<glyph name="G" format="1">
  <advance width="1582"/>
  <unicode hex="0047"/>
  <outline>
    <contour>
      <point x="80" y="745" type="qcurve" smooth="yes"/>
      <point x="80" y="1138"/>
      <point x="472" y="1512"/>
      <point x="818" y="1512" type="qcurve" smooth="yes"/>
      <point x="968" y="1512"/>
      <point x="1183" y="1446"/>
      <point x="1249" y="1382" type="qcurve"/>
      <point x="1166" y="1283" type="line"/>
      <point x="1118" y="1336"/>
      <point x="1006" y="1382"/>
      <point x="925" y="1382" type="qcurve" smooth="yes"/>
      <point x="789" y="1382"/>
      <point x="625" y="1179"/>
      <point x="625" y="770" type="qcurve" smooth="yes"/>
      <point x="626" y="364"/>
      <point x="772" y="104"/>
      <point x="911" y="104" type="qcurve" smooth="yes"/>
      <point x="995" y="105"/>
      <point x="1111" y="179"/>
      <point x="1140" y="244" type="qcurve"/>
      <point x="1485" y="206" type="line"/>
      <point x="1396" y="122"/>
      <point x="1067" y="-21"/>
      <point x="852" y="-21" type="qcurve" smooth="yes"/>
      <point x="493" y="-21"/>
      <point x="80" y="348"/>
    </contour>
    <contour>
      <point x="959" y="596" type="line"/>
      <point x="959" y="696" type="line"/>
      <point x="1605" y="696" type="line"/>
      <point x="1605" y="596" type="line"/>
      <point x="1537" y="561" type="line"/>
      <point x="1537" y="219" type="line"/>
      <point x="1058" y="81" type="line"/>
      <point x="1058" y="561" type="line"/>
    </contour>
    <contour>
      <point x="1135" y="1325" type="line"/>
      <point x="1211" y="1487" type="line"/>
      <point x="1292" y="1487" type="line"/>
      <point x="1292" y="1042" type="line"/>
      <point x="1195" y="1042" type="line"/>
    </contour>
  </outline>
</glyph>
<glyph name="H" format="1">
  <advance width="1740"/>
  <unicode hex="0048"/>
  <outline>
    <contour>
      <point x="42.0" y="0" type="line"/>
      <point x="42.0" y="100" type="line"/>
      <point x="159.0" y="135" type="line"/>
      <point x="161.0" y="754" type="line"/>
      <point x="159.0" y="1352" type="line"/>
      <point x="42.0" y="1386" type="line"/>
      <point x="42.0" y="1500" type="line"/>
      <point x="775.0" y="1500" type="line"/>
      <point x="775.0" y="1386" type="line"/>
      <point x="663.0" y="1352" type="line"/>
      <point x="661.0" y="754" type="line"/>
      <point x="663.0" y="135" type="line"/>
      <point x="775.0" y="100" type="line"/>
      <point x="775.0" y="0" type="line"/>
    </contour>
    <contour>
      <point x="416.0" y="716" type="line"/>
      <point x="416.0" y="848" type="line"/>
      <point x="870.0" y="840" type="line"/>
      <point x="1346.0" y="848" type="line"/>
      <point x="1346.0" y="716" type="line"/>
      <point x="870.0" y="716" type="line"/>
    </contour>
    <contour>
      <point x="965.0" y="0" type="line"/>
      <point x="965.0" y="100" type="line"/>
      <point x="1078.0" y="135" type="line"/>
      <point x="1080.0" y="754" type="line"/>
      <point x="1078.0" y="1352" type="line"/>
      <point x="965.0" y="1386" type="line"/>
      <point x="965.0" y="1500" type="line"/>
      <point x="1698.0" y="1500" type="line"/>
      <point x="1698.0" y="1386" type="line"/>
      <point x="1582.0" y="1352" type="line"/>
      <point x="1580.0" y="754" type="line"/>
      <point x="1582.0" y="135" type="line"/>
      <point x="1698.0" y="100" type="line"/>
      <point x="1698.0" y="0" type="line"/>
    </contour>
  </outline>
</glyph>
<glyph name="I" format="1">
  <advance width="780"/>
  <unicode hex="0049"/>
  <outline>
    <contour>
      <point x="34.0" y="0" type="line"/>
      <point x="34.0" y="100" type="line"/>
      <point x="137.0" y="135" type="line"/>
      <point x="139.0" y="754" type="line"/>
      <point x="137.0" y="1352" type="line"/>
      <point x="34.0" y="1386" type="line"/>
      <point x="34.0" y="1500" type="line"/>
      <point x="746.0" y="1500" type="line"/>
      <point x="746.0" y="1386" type="line"/>
      <point x="643.0" y="1352" type="line"/>
      <point x="641.0" y="754" type="line"/>
      <point x="643.0" y="136" type="line"/>
      <point x="746.0" y="100" type="line"/>
      <point x="746.0" y="0" type="line"/>
    </contour>
  </outline>
</glyph>
<glyph name="J" format="1">
  <advance width="660"/>
  <unicode hex="004A"/>
  <outline>
    <contour>
      <point x="16" y="0" type="qcurve"/>
      <point x="16" y="103" type="line"/>
      <point x="33" y="103" type="line" smooth="yes"/>
      <point x="81" y="103"/>
      <point x="122" y="152"/>
      <point x="122" y="209" type="qcurve" smooth="yes"/>
      <point x="120" y="754" type="line"/>
      <point x="118" y="1352" type="line"/>
      <point x="70" y="1386" type="line"/>
      <point x="70" y="1500" type="line"/>
      <point x="664" y="1500" type="line"/>
      <point x="664" y="1386" type="line"/>
      <point x="621" y="1352" type="line"/>
      <point x="619" y="754" type="line"/>
      <point x="622" y="309" type="line" smooth="yes"/>
      <point x="623" y="175"/>
      <point x="419" y="-23"/>
      <point x="254" y="-23" type="qcurve" smooth="yes"/>
      <point x="178" y="-23"/>
      <point x="39" y="-9"/>
    </contour>
  </outline>
</glyph>
<glyph name="M" format="1">
  <advance width="2116"/>
  <unicode hex="004D"/>
  <outline>
    <contour>
      <point x="51.0" y="0" type="line"/>
      <point x="51.0" y="100" type="line"/>
      <point x="187.0" y="135" type="line"/>
      <point x="189.0" y="754" type="line"/>
      <point x="187.0" y="1352" type="line"/>
      <point x="51.0" y="1386" type="line"/>
      <point x="51.0" y="1500" type="line"/>
      <point x="717.0" y="1500" type="line"/>
      <point x="879.0" y="927" type="line"/>
      <point x="1021.0" y="435" type="line"/>
      <point x="1167.0" y="917" type="line"/>
      <point x="1339.0" y="1500" type="line"/>
      <point x="2065.0" y="1500" type="line"/>
      <point x="2065.0" y="1386" type="line"/>
      <point x="1929.0" y="1352" type="line"/>
      <point x="1927.0" y="754" type="line"/>
      <point x="1929.0" y="135" type="line"/>
      <point x="2065.0" y="100" type="line"/>
      <point x="2065.0" y="0" type="line"/>
      <point x="1269.0" y="0" type="line"/>
      <point x="1269.0" y="100" type="line"/>
      <point x="1426.0" y="135" type="line"/>
      <point x="1428.0" y="752" type="line"/>
      <point x="1426.0" y="1327" type="line"/>
      <point x="1267.0" y="768" type="line"/>
      <point x="1067.0" y="-5" type="line"/>
      <point x="662.0" y="-5" type="line"/>
      <point x="477.0" y="736" type="line"/>
      <point x="310.0" y="1338" type="line"/>
      <point x="308.0" y="754" type="line"/>
      <point x="310.0" y="135" type="line"/>
      <point x="453.0" y="100" type="line"/>
      <point x="453.0" y="0" type="line"/>
    </contour>
  </outline>
</glyph>
<glyph name="O" format="1">
  <advance width="1664"/>
  <unicode hex="004F"/>
  <outline>
    <contour>
      <point x="37.0" y="745" type="qcurve" smooth="yes"/>
      <point x="37.0" y="1120"/>
      <point x="438.0" y="1517"/>
      <point x="832.0" y="1517" type="qcurve" smooth="yes"/>
      <point x="1225.0" y="1517"/>
      <point x="1627.0" y="1133"/>
      <point x="1627.0" y="756" type="qcurve" smooth="yes"/>
      <point x="1627.0" y="393"/>
      <point x="1234.0" y="-21"/>
      <point x="837.0" y="-21" type="qcurve" smooth="yes"/>
      <point x="444.0" y="-21"/>
      <point x="37.0" y="385"/>
    </contour>
    <contour>
      <point x="582.0" y="771" type="qcurve" smooth="yes"/>
      <point x="582.0" y="375"/>
      <point x="708.0" y="109"/>
      <point x="832.0" y="109" type="qcurve" smooth="yes"/>
      <point x="963.0" y="109"/>
      <point x="1082.0" y="364"/>
      <point x="1082.0" y="751" type="qcurve" smooth="yes"/>
      <point x="1082.0" y="1124"/>
      <point x="957.0" y="1378"/>
      <point x="833.0" y="1378" type="qcurve" smooth="yes"/>
      <point x="705.0" y="1378"/>
      <point x="582.0" y="1161"/>
    </contour>
  </outline>
</glyph>
<glyph name="P" format="1">
  <advance width="1268"/>
  <unicode hex="0050"/>
  <outline>
    <contour>
      <point x="18.63636363636364" y="0" type="line"/>
      <point x="18.63636363636364" y="100" type="line"/>
      <point x="80.63636363636364" y="137" type="line"/>
      <point x="82.63636363636364" y="754" type="line"/>
      <point x="80.63636363636364" y="1352" type="line"/>
      <point x="18.63636363636364" y="1386" type="line"/>
      <point x="18.63636363636364" y="1500" type="line"/>
      <point x="860.6363636363636" y="1500" type="line" smooth="yes"/>
      <point x="1065.6363636363637" y="1500"/>
      <point x="1256.6363636363637" y="1296"/>
      <point x="1256.6363636363637" y="1081" type="qcurve" smooth="yes"/>
      <point x="1256.6363636363637" y="868"/>
      <point x="1037.6363636363637" y="607"/>
      <point x="808.6363636363636" y="607" type="qcurve" smooth="yes"/>
      <point x="688.6363636363636" y="607"/>
      <point x="569.6363636363636" y="621"/>
      <point x="502.6363636363636" y="636" type="qcurve"/>
      <point x="511.6363636363636" y="737" type="line"/>
      <point x="558.6363636363636" y="727"/>
      <point x="604.6363636363636" y="720"/>
      <point x="635.6363636363636" y="720" type="qcurve" smooth="yes"/>
      <point x="688.6363636363636" y="720"/>
      <point x="749.6363636363636" y="861"/>
      <point x="749.6363636363636" y="1068" type="qcurve" smooth="yes"/>
      <point x="749.6363636363636" y="1261"/>
      <point x="691.6363636363636" y="1382"/>
      <point x="641.6363636363636" y="1382" type="qcurve" smooth="yes"/>
      <point x="600.6363636363636" y="1382" type="line"/>
      <point x="582.6363636363636" y="1365" type="line"/>
      <point x="582.6363636363636" y="764" type="line"/>
      <point x="584.6363636363636" y="132" type="line"/>
      <point x="649.6363636363636" y="100" type="line"/>
      <point x="649.6363636363636" y="0" type="line"/>
    </contour>
  </outline>
</glyph>
<glyph name="R" format="1">
  <advance width="1400"/>
  <unicode hex="0052"/>
  <outline>
    <contour>
      <point x="82" y="0" type="line"/>
      <point x="82" y="100" type="line"/>
      <point x="161" y="136" type="line"/>
      <point x="163" y="754" type="line"/>
      <point x="161" y="1352" type="line"/>
      <point x="82" y="1386" type="line"/>
      <point x="82" y="1500" type="line"/>
      <point x="970" y="1500" type="line" smooth="yes"/>
      <point x="1167" y="1500"/>
      <point x="1347" y="1331"/>
      <point x="1347" y="1153" type="qcurve" smooth="yes"/>
      <point x="1347" y="975"/>
      <point x="1164" y="764"/>
      <point x="992" y="764" type="qcurve" smooth="yes"/>
      <point x="916" y="764"/>
      <point x="453" y="769"/>
      <point x="408" y="777" type="qcurve"/>
      <point x="406" y="872" type="line"/>
      <point x="665" y="872" type="line"/>
      <point x="728" y="872" type="line" smooth="yes"/>
      <point x="789" y="872"/>
      <point x="839" y="982"/>
      <point x="839" y="1148" type="qcurve" smooth="yes"/>
      <point x="839" y="1293"/>
      <point x="791" y="1382"/>
      <point x="739" y="1382" type="qcurve" smooth="yes"/>
      <point x="681" y="1382" type="line"/>
      <point x="666" y="1368" type="line"/>
      <point x="662" y="746" type="line"/>
      <point x="664" y="136" type="line"/>
      <point x="744" y="100" type="line"/>
      <point x="744" y="0" type="line"/>
    </contour>
    <contour>
      <point x="711" y="811" type="line"/>
      <point x="1182" y="842" type="line"/>
      <point x="1359" y="201" type="line"/>
      <point x="1387" y="144"/>
      <point x="1429" y="108"/>
      <point x="1462" y="100" type="qcurve"/>
      <point x="1462" y="0" type="line"/>
      <point x="951" y="0" type="line"/>
      <point x="904" y="42" type="line"/>
    </contour>
  </outline>
</glyph>
<glyph name="S" format="1">
  <advance width="1112"/>
  <unicode hex="0053"/>
  <outline>
    <contour>
      <point x="24.0" y="1" type="line"/>
      <point x="24.0" y="438" type="line"/>
      <point x="121.0" y="438" type="line"/>
      <point x="181.0" y="170" type="line"/>
      <point x="103.0" y="1" type="line"/>
    </contour>
    <contour>
      <point x="45.0" y="1106" type="qcurve" smooth="yes"/>
      <point x="45.0" y="1299"/>
      <point x="287.0" y="1511"/>
      <point x="506.0" y="1511" type="qcurve" smooth="yes"/>
      <point x="662.0" y="1511"/>
      <point x="857.0" y="1443"/>
      <point x="913.0" y="1393" type="qcurve"/>
      <point x="858.0" y="1278" type="line"/>
      <point x="805.0" y="1325"/>
      <point x="632.0" y="1383"/>
      <point x="536.0" y="1383" type="qcurve" smooth="yes"/>
      <point x="438.0" y="1383"/>
      <point x="352.0" y="1323"/>
      <point x="352.0" y="1258" type="qcurve" smooth="yes"/>
      <point x="352.0" y="1184"/>
      <point x="456.0" y="1062"/>
      <point x="662.0" y="966" type="qcurve" smooth="yes"/>
      <point x="864.0" y="878"/>
      <point x="1088.0" y="629"/>
      <point x="1088.0" y="433" type="qcurve" smooth="yes"/>
      <point x="1088.0" y="237"/>
      <point x="818.0" y="-18"/>
      <point x="587.0" y="-18" type="qcurve" smooth="yes"/>
      <point x="388.0" y="-18"/>
      <point x="139.0" y="97"/>
      <point x="50.0" y="225" type="qcurve"/>
      <point x="147.0" y="296" type="line"/>
      <point x="200.0" y="197"/>
      <point x="393.0" y="106"/>
      <point x="506.0" y="106" type="qcurve" smooth="yes"/>
      <point x="608.0" y="106"/>
      <point x="730.0" y="201"/>
      <point x="730.0" y="285" type="qcurve" smooth="yes"/>
      <point x="730.0" y="385"/>
      <point x="608.0" y="516"/>
      <point x="445.0" y="597" type="qcurve" smooth="yes"/>
      <point x="238.0" y="693"/>
      <point x="45.0" y="927"/>
    </contour>
    <contour>
      <point x="835.0" y="1319" type="line"/>
      <point x="908.0" y="1487" type="line"/>
      <point x="988.0" y="1487" type="line"/>
      <point x="988.0" y="1093" type="line"/>
      <point x="891.0" y="1093" type="line"/>
    </contour>
  </outline>
</glyph>
<glyph name="T" format="1">
  <advance width="1288"/>
  <unicode hex="0054"/>
  <outline>
    <contour>
      <point x="20.0" y="1086" type="line"/>
      <point x="20.0" y="1500" type="line"/>
      <point x="1268.0" y="1500" type="line"/>
      <point x="1268.0" y="1086" type="line"/>
      <point x="1164.0" y="1086" type="line"/>
      <point x="1129.0" y="1394" type="line"/>
      <point x="907.0" y="1394" type="line"/>
      <point x="889.0" y="1379" type="line"/>
      <point x="892.0" y="754" type="line"/>
      <point x="894.0" y="136" type="line"/>
      <point x="1006.0" y="100" type="line"/>
      <point x="1006.0" y="0" type="line"/>
      <point x="277.0" y="0" type="line"/>
      <point x="277.0" y="100" type="line"/>
      <point x="391.0" y="136" type="line"/>
      <point x="393.0" y="754" type="line"/>
      <point x="396.0" y="1378" type="line"/>
      <point x="385.0" y="1394" type="line"/>
      <point x="159.0" y="1394" type="line"/>
      <point x="124.0" y="1086" type="line"/>
    </contour>
  </outline>
</glyph>
<glyph name="V" format="1">
  <advance width="1426"/>
  <unicode hex="0056"/>
  <outline>
    <contour>
      <point x="-18.375" y="1390" type="line"/>
      <point x="-18.375" y="1500" type="line"/>
      <point x="710.625" y="1500" type="line"/>
      <point x="710.625" y="1390" type="line"/>
      <point x="602.625" y="1349" type="line"/>
      <point x="742.625" y="880" type="line"/>
      <point x="902.625" y="378" type="line"/>
      <point x="1051.625" y="866" type="line"/>
      <point x="1196.625" y="1356" type="line"/>
      <point x="1075.625" y="1390" type="line"/>
      <point x="1075.625" y="1500" type="line"/>
      <point x="1456.625" y="1500" type="line"/>
      <point x="1456.625" y="1390" type="line"/>
      <point x="1337.625" y="1351" type="line"/>
      <point x="1171.625" y="831" type="line"/>
      <point x="947.625" y="-4" type="line"/>
      <point x="484.625" y="-4" type="line"/>
      <point x="265.625" y="795" type="line"/>
      <point x="87.625" y="1351" type="line"/>
    </contour>
  </outline>
</glyph>
<glyph name="Z" format="1">
  <advance width="1166"/>
  <unicode hex="005A"/>
  <outline>
    <contour>
      <point x="70" y="0" type="line"/>
      <point x="40" y="92" type="line"/>
      <point x="376" y="820" type="line"/>
      <point x="605" y="1372" type="line"/>
      <point x="595" y="1382" type="line"/>
      <point x="233" y="1382" type="line"/>
      <point x="197" y="1092" type="line"/>
      <point x="86" y="1092" type="line"/>
      <point x="86" y="1500" type="line"/>
      <point x="1149" y="1500" type="line"/>
      <point x="1149" y="1410" type="line"/>
      <point x="826" y="698" type="line"/>
      <point x="595" y="121" type="line"/>
      <point x="605" y="108" type="line"/>
      <point x="1008" y="108" type="line"/>
      <point x="1084" y="355" type="line"/>
      <point x="1182" y="355" type="line"/>
      <point x="1142" y="0" type="line"/>
    </contour>
  </outline>
</glyph>
<glyph name="bracketright" format="1">
  <advance width="636"/>
  <unicode hex="005D"/>
  <outline>
    <contour>
      <point x="612" y="508" type="line"/>
      <point x="624" y="-342" type="line"/>
      <point x="643" y="-362" type="line"/>
      <point x="643" y="-480" type="line"/>
      <point x="64" y="-480" type="line"/>
      <point x="64" y="-361" type="line"/>
      <point x="196" y="-342" type="line"/>
      <point x="208" y="508" type="line"/>
      <point x="196" y="1362" type="line"/>
      <point x="64" y="1381" type="line"/>
      <point x="64" y="1500" type="line"/>
      <point x="643" y="1500" type="line"/>
      <point x="643" y="1382" type="line"/>
      <point x="624" y="1362" type="line"/>
    </contour>
  </outline>
</glyph>
<glyph name="c" format="1">
  <advance width="1014"/>
  <unicode hex="0063"/>
  <outline>
    <contour>
      <point x="64" y="490" type="qcurve" smooth="yes"/>
      <point x="64" y="745"/>
      <point x="374" y="1022"/>
      <point x="597" y="1022" type="qcurve" smooth="yes"/>
      <point x="749" y="1022"/>
      <point x="908" y="967"/>
      <point x="961" y="917" type="qcurve"/>
      <point x="873" y="796" type="line"/>
      <point x="860" y="843"/>
      <point x="800" y="906"/>
      <point x="744" y="906" type="qcurve" smooth="yes"/>
      <point x="672" y="906"/>
      <point x="593" y="772"/>
      <point x="593" y="506" type="qcurve" smooth="yes"/>
      <point x="593" y="241"/>
      <point x="684" y="116"/>
      <point x="767" y="116" type="qcurve" smooth="yes"/>
      <point x="831" y="116"/>
      <point x="921" y="183"/>
      <point x="951" y="248" type="qcurve"/>
      <point x="1033" y="199" type="line"/>
      <point x="990" y="95"/>
      <point x="791" y="-22"/>
      <point x="616" y="-22" type="qcurve" smooth="yes"/>
      <point x="373" y="-22"/>
      <point x="64" y="241"/>
    </contour>
    <contour>
      <point x="856" y="869" type="line"/>
      <point x="903" y="1014" type="line"/>
      <point x="988" y="1014" type="line"/>
      <point x="988" y="660" type="line"/>
      <point x="895" y="660" type="line"/>
    </contour>
  </outline>
</glyph>
<glyph name="e" format="1">
  <advance width="1006"/>
  <unicode hex="0065"/>
  <outline>
    <contour>
      <point x="10.434782608695656" y="500" type="qcurve" smooth="yes"/>
      <point x="10.434782608695656" y="768"/>
      <point x="291.4347826086956" y="1022"/>
      <point x="529.4347826086956" y="1022" type="qcurve" smooth="yes"/>
      <point x="751.4347826086956" y="1022"/>
      <point x="978.4347826086956" y="795"/>
      <point x="1001.4347826086956" y="590" type="qcurve"/>
      <point x="615.4347826086956" y="590" type="line"/>
      <point x="614.4347826086956" y="779"/>
      <point x="597.4347826086956" y="908"/>
      <point x="561.4347826086956" y="908" type="qcurve" smooth="yes"/>
      <point x="528.4347826086956" y="908"/>
      <point x="500.4347826086956" y="787"/>
      <point x="500.4347826086956" y="531" type="qcurve" smooth="yes"/>
      <point x="500.4347826086956" y="265"/>
      <point x="571.4347826086956" y="118"/>
      <point x="656.4347826086956" y="118" type="qcurve" smooth="yes"/>
      <point x="734.4347826086956" y="118"/>
      <point x="847.4347826086956" y="194"/>
      <point x="876.4347826086956" y="241" type="qcurve"/>
      <point x="969.4347826086956" y="208" type="line"/>
      <point x="933.4347826086956" y="118"/>
      <point x="736.4347826086956" y="-22"/>
      <point x="535.4347826086956" y="-22" type="qcurve" smooth="yes"/>
      <point x="310.4347826086956" y="-22"/>
      <point x="10.434782608695656" y="231"/>
    </contour>
    <contour>
      <point x="395.4347826086956" y="528" type="line"/>
      <point x="395.4347826086956" y="614" type="line"/>
      <point x="974.4347826086956" y="614" type="line"/>
      <point x="1001.4347826086956" y="590" type="line"/>
      <point x="1001.4347826086956" y="528" type="line"/>
    </contour>
  </outline>
</glyph>
<glyph name="h" format="1">
  <advance width="1258"/>
  <unicode hex="0068"/>
  <outline>
    <contour>
      <point x="19" y="0" type="line"/>
      <point x="19" y="80" type="line"/>
      <point x="75" y="115" type="line"/>
      <point x="77" y="527" type="line"/>
      <point x="75" y="1376" type="line"/>
      <point x="7" y="1406" type="line"/>
      <point x="7" y="1500" type="line"/>
      <point x="507" y="1534" type="line"/>
      <point x="539" y="1534" type="line"/>
      <point x="568" y="1502" type="line"/>
      <point x="565" y="527" type="line"/>
      <point x="567" y="115" type="line"/>
      <point x="612" y="80" type="line"/>
      <point x="612" y="0" type="line"/>
    </contour>
    <contour>
      <point x="564" y="818" type="qcurve"/>
      <point x="528" y="856" type="line"/>
      <point x="578" y="935"/>
      <point x="753" y="1022"/>
      <point x="900" y="1022" type="qcurve" smooth="yes"/>
      <point x="1045" y="1022"/>
      <point x="1187" y="914"/>
      <point x="1189" y="825" type="qcurve" smooth="yes"/>
      <point x="1189" y="788"/>
      <point x="1187" y="527"/>
      <point x="1187" y="527" type="qcurve"/>
      <point x="1192" y="115" type="line"/>
      <point x="1248" y="80" type="line"/>
      <point x="1248" y="0" type="line"/>
      <point x="657" y="0" type="line"/>
      <point x="657" y="80" type="line"/>
      <point x="700" y="115" type="line"/>
      <point x="702" y="527" type="line"/>
      <point x="702" y="798" type="line" smooth="yes"/>
      <point x="702" y="830"/>
      <point x="673" y="863"/>
      <point x="644" y="863" type="qcurve" smooth="yes"/>
      <point x="623" y="863"/>
      <point x="580" y="840"/>
    </contour>
  </outline>
</glyph>
<glyph name="j" format="1">
  <advance width="556"/>
  <unicode hex="006A"/>
  <outline>
    <contour>
      <point x="-2.3255813953488342" y="-386" type="line"/>
      <point x="-2.3255813953488342" y="-329" type="line"/>
      <point x="68.67441860465117" y="-294" type="line"/>
      <point x="66.67441860465117" y="527" type="line"/>
      <point x="60.674418604651166" y="852" type="line"/>
      <point x="17.674418604651166" y="882" type="line"/>
      <point x="17.674418604651166" y="976" type="line"/>
      <point x="492.6744186046512" y="1010" type="line"/>
      <point x="539.6744186046511" y="1010" type="line"/>
      <point x="562.6744186046511" y="971" type="line"/>
      <point x="556.6744186046511" y="527" type="line"/>
      <point x="558.6744186046511" y="-86" type="line" smooth="yes"/>
      <point x="559.6744186046511" y="-275"/>
      <point x="364.6744186046512" y="-418"/>
      <point x="183.67441860465118" y="-418" type="qcurve"/>
    </contour>
    <contour>
      <point x="34.674418604651166" y="1308" type="qcurve" smooth="yes"/>
      <point x="34.674418604651166" y="1391"/>
      <point x="170.67441860465118" y="1482"/>
      <point x="297.6744186046512" y="1482" type="qcurve" smooth="yes"/>
      <point x="418.6744186046512" y="1482"/>
      <point x="563.6744186046511" y="1388"/>
      <point x="563.6744186046511" y="1309" type="qcurve" smooth="yes"/>
      <point x="563.6744186046511" y="1226"/>
      <point x="427.6744186046512" y="1159"/>
      <point x="298.6744186046512" y="1159" type="qcurve" smooth="yes"/>
      <point x="179.67441860465118" y="1159"/>
      <point x="34.674418604651166" y="1231"/>
    </contour>
  </outline>
</glyph>
<glyph name="k" format="1">
  <advance width="1072"/>
  <unicode hex="006B"/>
  <outline>
    <contour>
      <point x="11" y="0" type="line"/>
      <point x="11" y="80" type="line"/>
      <point x="54" y="115" type="line"/>
      <point x="56" y="527" type="line"/>
      <point x="54" y="1376" type="line"/>
      <point x="7" y="1406" type="line"/>
      <point x="7" y="1500" type="line"/>
      <point x="487" y="1534" type="line"/>
      <point x="519" y="1534" type="line"/>
      <point x="547" y="1502" type="line"/>
      <point x="545" y="507" type="line"/>
      <point x="547" y="115" type="line"/>
      <point x="577" y="80" type="line"/>
      <point x="577" y="0" type="line"/>
    </contour>
    <contour>
      <point x="501" y="348" type="line"/>
      <point x="493" y="457" type="line"/>
      <point x="817" y="880" type="line"/>
      <point x="766" y="910" type="line"/>
      <point x="766" y="1000" type="line"/>
      <point x="1041" y="1000" type="line"/>
      <point x="1041" y="910" type="line"/>
      <point x="947" y="875" type="line"/>
    </contour>
    <contour>
      <point x="566" y="483" type="line"/>
      <point x="901" y="839" type="line"/>
      <point x="1148" y="115" type="line"/>
      <point x="1196" y="80" type="line"/>
      <point x="1196" y="0" type="line"/>
      <point x="731" y="0" type="line"/>
      <point x="697" y="25" type="line"/>
      <point x="653" y="115" type="line"/>
    </contour>
  </outline>
</glyph>
<glyph name="l" format="1">
  <advance width="632"/>
  <unicode hex="006C"/>
  <outline>
    <contour>
      <point x="21.28813559322034" y="0" type="line"/>
      <point x="21.28813559322034" y="80" type="line"/>
      <point x="78.28813559322035" y="115" type="line"/>
      <point x="80.28813559322035" y="527" type="line"/>
      <point x="78.28813559322035" y="1376" type="line"/>
      <point x="5.288135593220339" y="1406" type="line"/>
      <point x="5.288135593220339" y="1500" type="line"/>
      <point x="511.2881355932203" y="1534" type="line"/>
      <point x="548.2881355932203" y="1532" type="line"/>
      <point x="571.2881355932203" y="1501" type="line"/>
      <point x="569.2881355932203" y="527" type="line"/>
      <point x="571.2881355932203" y="115" type="line"/>
      <point x="625.2881355932203" y="80" type="line"/>
      <point x="625.2881355932203" y="0" type="line"/>
    </contour>
  </outline>
</glyph>
<glyph name="m" format="1">
  <advance width="1916"/>
  <unicode hex="006D"/>
  <outline>
    <contour>
      <point x="17.661971830985912" y="0" type="line"/>
      <point x="17.661971830985912" y="80" type="line"/>
      <point x="77.66197183098592" y="115" type="line"/>
      <point x="79.66197183098592" y="527" type="line"/>
      <point x="77.66197183098592" y="850" type="line"/>
      <point x="17.661971830985912" y="880" type="line"/>
      <point x="17.661971830985912" y="974" type="line"/>
      <point x="506.6619718309859" y="1008" type="line"/>
      <point x="541.6619718309859" y="981" type="line"/>
      <point x="566.6619718309859" y="880" type="line"/>
      <point x="564.6619718309859" y="527" type="line"/>
      <point x="566.6619718309859" y="115" type="line"/>
      <point x="614.6619718309859" y="80" type="line"/>
      <point x="614.6619718309859" y="0" type="line"/>
    </contour>
    <contour>
      <point x="564.6619718309859" y="813" type="qcurve"/>
      <point x="527.6619718309859" y="852" type="line"/>
      <point x="584.6619718309859" y="932"/>
      <point x="772.6619718309859" y="1022"/>
      <point x="911.6619718309859" y="1022" type="qcurve" smooth="yes"/>
      <point x="1059.661971830986" y="1022"/>
      <point x="1202.661971830986" y="912"/>
      <point x="1202.661971830986" y="833" type="qcurve" smooth="yes"/>
      <point x="1202.661971830986" y="767"/>
      <point x="1199.661971830986" y="527"/>
      <point x="1199.661971830986" y="527" type="qcurve"/>
      <point x="1204.661971830986" y="115" type="line"/>
      <point x="1253.661971830986" y="80" type="line"/>
      <point x="1253.661971830986" y="0" type="line"/>
      <point x="665.6619718309859" y="0" type="line"/>
      <point x="665.6619718309859" y="80" type="line"/>
      <point x="712.6619718309859" y="115" type="line"/>
      <point x="714.6619718309859" y="527" type="line"/>
      <point x="714.6619718309859" y="794" type="line" smooth="yes"/>
      <point x="714.6619718309859" y="829"/>
      <point x="680.6619718309859" y="863"/>
      <point x="651.6619718309859" y="863" type="qcurve" smooth="yes"/>
      <point x="628.6619718309859" y="863"/>
      <point x="583.6619718309859" y="838"/>
    </contour>
    <contour>
      <point x="1194.661971830986" y="813" type="qcurve"/>
      <point x="1162.661971830986" y="852" type="line"/>
      <point x="1220.661971830986" y="931"/>
      <point x="1403.661971830986" y="1021"/>
      <point x="1542.661971830986" y="1021" type="qcurve" smooth="yes"/>
      <point x="1692.661971830986" y="1021"/>
      <point x="1835.661971830986" y="934"/>
      <point x="1835.661971830986" y="868" type="qcurve" smooth="yes"/>
      <point x="1835.661971830986" y="801"/>
      <point x="1835.661971830986" y="527"/>
      <point x="1835.661971830986" y="527" type="qcurve"/>
      <point x="1840.661971830986" y="115" type="line"/>
      <point x="1900.661971830986" y="80" type="line"/>
      <point x="1900.661971830986" y="0" type="line"/>
      <point x="1302.661971830986" y="0" type="line"/>
      <point x="1302.661971830986" y="80" type="line"/>
      <point x="1348.661971830986" y="115" type="line"/>
      <point x="1350.661971830986" y="527" type="line"/>
      <point x="1350.661971830986" y="794" type="line" smooth="yes"/>
      <point x="1350.661971830986" y="829"/>
      <point x="1318.661971830986" y="863"/>
      <point x="1287.661971830986" y="863" type="qcurve" smooth="yes"/>
      <point x="1261.661971830986" y="863"/>
      <point x="1215.661971830986" y="838"/>
    </contour>
  </outline>
</glyph>
<glyph name="r" format="1">
  <advance width="864"/>
  <unicode hex="0072"/>
  <outline>
    <contour>
      <point x="24.588235294117652" y="0" type="line"/>
      <point x="24.588235294117652" y="80" type="line"/>
      <point x="88.58823529411765" y="115" type="line"/>
      <point x="90.58823529411765" y="527" type="line"/>
      <point x="88.58823529411765" y="850" type="line"/>
      <point x="24.588235294117652" y="880" type="line"/>
      <point x="24.588235294117652" y="974" type="line"/>
      <point x="517.5882352941177" y="1008" type="line"/>
      <point x="552.5882352941177" y="981" type="line"/>
      <point x="577.5882352941177" y="880" type="line"/>
      <point x="574.5882352941177" y="527" type="line"/>
      <point x="577.5882352941177" y="115" type="line"/>
      <point x="646.5882352941177" y="80" type="line"/>
      <point x="646.5882352941177" y="0" type="line"/>
    </contour>
    <contour>
      <point x="511.5882352941177" y="698" type="qcurve"/>
      <point x="477.5882352941177" y="770" type="line"/>
      <point x="492.5882352941177" y="859"/>
      <point x="669.5882352941177" y="1005"/>
      <point x="804.5882352941177" y="1005" type="qcurve" smooth="yes"/>
      <point x="855.5882352941177" y="1005" type="line"/>
      <point x="855.5882352941177" y="703" type="line"/>
      <point x="756.5882352941177" y="703" type="line"/>
      <point x="733.5882352941177" y="875" type="line"/>
      <point x="664.5882352941177" y="875"/>
      <point x="546.5882352941177" y="784"/>
    </contour>
  </outline>
</glyph>
<glyph name="v" format="1">
  <advance width="1046"/>
  <unicode hex="0076"/>
  <outline>
    <contour>
      <point x="-2.0" y="910" type="line"/>
      <point x="-2.0" y="1000" type="line"/>
      <point x="590.0" y="1000" type="line"/>
      <point x="590.0" y="910" type="line"/>
      <point x="534.0" y="873" type="line"/>
      <point x="625.0" y="593" type="line"/>
      <point x="714.0" y="329" type="line"/>
      <point x="792.0" y="617" type="line"/>
      <point x="866.0" y="880" type="line"/>
      <point x="806.0" y="910" type="line"/>
      <point x="806.0" y="1000" type="line"/>
      <point x="1048.0" y="1000" type="line"/>
      <point x="1048.0" y="910" type="line"/>
      <point x="986.0" y="875" type="line"/>
      <point x="894.0" y="588" type="line"/>
      <point x="742.0" y="-8" type="line"/>
      <point x="337.0" y="-8" type="line"/>
      <point x="189.0" y="459" type="line"/>
      <point x="47.0" y="875" type="line"/>
    </contour>
  </outline>
</glyph>
<glyph name="z" format="1">
  <advance width="885"/>
  <unicode hex="007A"/>
  <outline>
    <contour>
      <point x="32" y="0" type="line"/>
      <point x="32" y="90" type="line"/>
      <point x="329" y="884" type="line"/>
      <point x="177" y="884" type="line"/>
      <point x="150" y="687" type="line"/>
      <point x="51" y="687" type="line"/>
      <point x="51" y="1000" type="line"/>
      <point x="877" y="1000" type="line"/>
      <point x="877" y="911" type="line"/>
      <point x="575" y="116" type="line"/>
      <point x="769" y="116" type="line"/>
      <point x="796" y="306" type="line"/>
      <point x="895" y="306" type="line"/>
      <point x="895" y="0" type="line"/>
    </contour>
  </outline>
</glyph>
<glyph name="braceleft" format="1">
  <advance width="693"/>
  <unicode hex="007B"/>
  <outline>
    <contour>
      <point x="40.285714285714285" y="481" type="line"/>
      <point x="40.285714285714285" y="589" type="line"/>
      <point x="96.28571428571428" y="598" type="line"/>
      <point x="145.28571428571428" y="610"/>
      <point x="221.28571428571428" y="663"/>
      <point x="221.28571428571428" y="743" type="qcurve" smooth="yes"/>
      <point x="221.28571428571428" y="834"/>
      <point x="71.28571428571428" y="1066"/>
      <point x="71.28571428571428" y="1184" type="qcurve" smooth="yes"/>
      <point x="71.28571428571428" y="1343"/>
      <point x="268.2857142857143" y="1510"/>
      <point x="381.2857142857143" y="1510" type="qcurve" smooth="yes"/>
      <point x="427.2857142857143" y="1510"/>
      <point x="662.2857142857143" y="1503"/>
      <point x="686.2857142857143" y="1500" type="qcurve"/>
      <point x="686.2857142857143" y="1386" type="line"/>
      <point x="653.2857142857143" y="1388"/>
      <point x="626.2857142857143" y="1388"/>
      <point x="594.2857142857143" y="1388" type="qcurve" smooth="yes"/>
      <point x="534.2857142857143" y="1388"/>
      <point x="469.2857142857143" y="1303"/>
      <point x="469.2857142857143" y="1208" type="qcurve" smooth="yes"/>
      <point x="469.2857142857143" y="1109"/>
      <point x="615.2857142857143" y="883"/>
      <point x="615.2857142857143" y="792" type="qcurve" smooth="yes"/>
      <point x="615.2857142857143" y="697"/>
      <point x="505.2857142857143" y="582"/>
      <point x="388.2857142857143" y="558" type="qcurve"/>
      <point x="506.2857142857143" y="538"/>
      <point x="615.2857142857143" y="422"/>
      <point x="615.2857142857143" y="345" type="qcurve" smooth="yes"/>
      <point x="615.2857142857143" y="244"/>
      <point x="459.2857142857143" y="-87"/>
      <point x="459.2857142857143" y="-186" type="qcurve" smooth="yes"/>
      <point x="459.2857142857143" y="-281"/>
      <point x="521.2857142857143" y="-372"/>
      <point x="586.2857142857143" y="-372" type="qcurve" smooth="yes"/>
      <point x="617.2857142857143" y="-372"/>
      <point x="650.2857142857143" y="-372"/>
      <point x="684.2857142857143" y="-370" type="qcurve"/>
      <point x="684.2857142857143" y="-482" type="line"/>
      <point x="660.2857142857143" y="-485"/>
      <point x="442.2857142857143" y="-495"/>
      <point x="396.2857142857143" y="-495" type="qcurve" smooth="yes"/>
      <point x="256.2857142857143" y="-495"/>
      <point x="61.285714285714285" y="-327"/>
      <point x="61.285714285714285" y="-168" type="qcurve" smooth="yes"/>
      <point x="61.285714285714285" y="-50"/>
      <point x="220.28571428571428" y="246"/>
      <point x="220.28571428571428" y="364" type="qcurve" smooth="yes"/>
      <point x="220.28571428571428" y="481" type="line"/>
    </contour>
  </outline>
</glyph>
<glyph name="bar" format="1">
  <advance width="604"/>
  <unicode hex="007C"/>
  <outline>
    <contour>
      <point x="96.0" y="-531" type="line"/>
      <point x="108.0" y="-58" type="line"/>
      <point x="113.0" y="250" type="line"/>
      <point x="111.0" y="830" type="line"/>
      <point x="108.0" y="1138" type="line"/>
      <point x="96.0" y="1489" type="line"/>
      <point x="508.0" y="1541" type="line"/>
      <point x="496.0" y="1138" type="line"/>
      <point x="491.0" y="830" type="line"/>
      <point x="493.0" y="250" type="line"/>
      <point x="496.0" y="-58" type="line"/>
      <point x="508.0" y="-479" type="line"/>
    </contour>
  </outline>
</glyph>
